<svg width="44" height="44" viewBox="0 0 44 44" fill="none" xmlns="http://www.w3.org/2000/svg">
<g clip-path="url(#clip0)">
<path d="M37.0527 10.1632V9.34149C37.0527 7.23507 35.3367 5.5116 33.2393 5.5116H21.8146C19.7172 5.5116 18.0012 7.23507 18.0012 9.34149V10.1632H37.0527Z" fill="#477B9E"/>
<path d="M26.7992 5.5116H21.8146C19.7172 5.5116 18.0012 7.23507 18.0012 9.34149V10.1632H22.9859V9.34149C22.9858 7.23507 24.7019 5.5116 26.7992 5.5116V5.5116Z" fill="#3F6D8E"/>
<path d="M11.726 15.4622V34.6442C11.726 35.9942 10.6213 37.0989 9.27124 37.0989H41.5452C42.8952 37.0989 43.9999 35.9942 43.9999 34.6442V15.4622H11.726Z" fill="#3F6D8E"/>
<path d="M16.4703 34.6442V15.4622H11.726V34.6442C11.726 35.9942 10.6213 37.0989 9.27124 37.0989H14.0156C15.3657 37.099 16.4703 35.9943 16.4703 34.6442Z" fill="#365E7D"/>
<path d="M41.5452 10.1432H9.27124C10.6214 10.1432 11.726 11.2478 11.726 12.5979V15.6393H43.9999V12.5979C43.9999 11.2478 42.8953 10.1432 41.5452 10.1432Z" fill="#B5DCFF"/>
<path d="M41.5452 10.1432H9.27124C10.6214 10.1432 11.726 11.2478 11.726 12.5979V15.6393H43.9999V12.5979C43.9999 11.2478 42.8953 10.1432 41.5452 10.1432Z" fill="#B5DCFF"/>
<path d="M14.0156 10.1432H9.27124C10.6214 10.1432 11.726 11.2478 11.726 12.5979V15.6393H16.4703V12.5979C16.4703 11.2478 15.3657 10.1432 14.0156 10.1432Z" fill="#8BCAFF"/>
<path d="M8.1129 6.65894H3.79007C3.17871 6.65894 2.67847 7.16133 2.67847 7.77535V9.04679C2.67847 9.66082 3.17871 10.1632 3.79007 10.1632H8.1129C8.72426 10.1632 9.2245 9.66082 9.2245 9.04679V7.77535C9.22441 7.16133 8.72426 6.65894 8.1129 6.65894Z" fill="#477B9E"/>
<path d="M5.95148 9.04679V7.77535C5.95148 7.16133 6.45172 6.65894 7.06308 6.65894H3.79007C3.17871 6.65894 2.67847 7.16133 2.67847 7.77535V9.04679C2.67847 9.66082 3.17871 10.1632 3.79007 10.1632H7.06308C6.45164 10.1632 5.95148 9.66082 5.95148 9.04679Z" fill="#3F6D8E"/>
<path d="M0 15.4622V34.6442C0 35.9942 1.10464 37.0989 2.45472 37.0989H9.4484C10.7985 37.0989 11.9031 35.9942 11.9031 34.6442V15.4622H0Z" fill="#477B9E"/>
<path d="M4.44254 34.6442V15.4622H0V34.6442C0 35.9942 1.10464 37.0989 2.45472 37.0989H6.89726C5.54718 37.099 4.44254 35.9943 4.44254 34.6442Z" fill="#3F6D8E"/>
<path d="M9.4484 10.1432H2.45472C1.10464 10.1432 0 11.2478 0 12.5979V15.6393H11.9032V12.5979C11.9032 11.2478 10.7986 10.1432 9.4484 10.1432Z" fill="#DBEDFF"/>
<path d="M6.89726 10.1432H2.45472C1.10464 10.1432 0 11.2478 0 12.5979V15.6393H4.44254V12.5979C4.44254 11.2478 5.54718 10.1432 6.89726 10.1432Z" fill="#B5DCFF"/>
<path d="M27.5269 38.4885C20.4613 38.4885 14.7129 32.7402 14.7129 25.6745C14.7129 18.6088 20.4613 12.8604 27.5269 12.8604C34.5926 12.8604 40.341 18.6088 40.341 25.6745C40.341 32.7402 34.5926 38.4885 27.5269 38.4885V38.4885Z" fill="#365E7D"/>
<path d="M19.0153 25.6745C19.0153 19.3418 23.6332 14.0682 29.6781 13.042C28.9784 12.9232 28.2599 12.8604 27.5269 12.8604C20.4612 12.8604 14.7129 18.6088 14.7129 25.6745C14.7129 32.7402 20.4612 38.4885 27.5269 38.4885C28.26 38.4885 28.9785 38.4258 29.6781 38.307C23.6332 37.2808 19.0153 32.0071 19.0153 25.6745V25.6745Z" fill="#294B64"/>
<path d="M34.6162 32.7694C38.5346 28.8511 38.5346 22.4982 34.6162 18.5798C30.6979 14.6615 24.3449 14.6615 20.4266 18.5798C16.5082 22.4982 16.5082 28.8511 20.4266 32.7694C24.3449 36.6878 30.6979 36.6878 34.6162 32.7694Z" fill="#7FB3FA"/>
<path d="M21.7944 25.6744C21.7944 20.8794 25.1753 16.8597 29.6782 15.8723C28.985 15.7203 28.2652 15.6394 27.527 15.6394C21.9936 15.6394 17.4919 20.1412 17.4919 25.6745C17.4919 31.2078 21.9937 35.7096 27.527 35.7096C28.2653 35.7096 28.985 35.6287 29.6782 35.4767C25.1753 34.4891 21.7944 30.4695 21.7944 25.6744Z" fill="#64A6F4"/>
<path d="M31.8701 30.0234C34.2719 27.6216 34.2719 23.7276 31.8701 21.3258C29.4684 18.924 25.5743 18.924 23.1725 21.3258C20.7708 23.7276 20.7708 27.6216 23.1725 30.0234C25.5743 32.4252 29.4684 32.4252 31.8701 30.0234Z" fill="#64A6F4"/>
<path d="M25.6784 25.6744C25.6784 23.0392 27.3445 20.7866 29.6783 19.9124C29.0083 19.6615 28.2836 19.5234 27.527 19.5234C24.1353 19.5234 21.376 22.2827 21.376 25.6744C21.376 29.0661 24.1353 31.8255 27.527 31.8255C28.2835 31.8255 29.0083 31.6874 29.6783 31.4365C27.3445 30.5623 25.6784 28.3096 25.6784 25.6744V25.6744Z" fill="#3D8BD8"/>
<path d="M28.8465 26.9999C29.5785 26.268 29.5785 25.0813 28.8465 24.3493C28.1146 23.6174 26.9279 23.6174 26.1959 24.3493C25.464 25.0813 25.464 26.268 26.1959 26.9999C26.9279 27.7319 28.1146 27.7319 28.8465 26.9999Z" fill="#9CC5FA"/>
<path d="M27.5269 25.6745C27.5269 24.9824 27.9048 24.3783 28.4642 24.0535C28.1881 23.8933 27.8685 23.7999 27.5269 23.7999C26.4932 23.7999 25.6523 24.6408 25.6523 25.6745C25.6523 26.7081 26.4933 27.549 27.5269 27.549C27.8685 27.549 28.1881 27.4557 28.4642 27.2953C27.9048 26.9707 27.5269 26.3665 27.5269 25.6745V25.6745Z" fill="#7FB3FA"/>
</g>
<defs>
<clipPath id="clip0">
<rect width="44" height="44" fill="white"/>
</clipPath>
</defs>
</svg>
