<svg width="44" height="44" viewBox="0 0 44 44" fill="none" xmlns="http://www.w3.org/2000/svg">
<path d="M41.0667 6.32262C42.8828 6.55596 44.178 8.2 43.98 10.0203L41.4029 32.8227C41.2047 34.6375 39.5728 35.948 37.758 35.7498C37.7217 35.7458 37.6854 35.7412 37.6492 35.736H37.4811V14.8385C37.4811 12.982 35.9761 11.4769 34.1196 11.4769H6.10681L6.7231 5.87437C6.95677 4.02744 8.62568 2.70715 10.4768 2.905L41.0667 6.32262Z" fill="#00ACEA"/>
<path d="M37.481 35.736V37.7529C37.481 39.6094 35.9759 41.1144 34.1195 41.1144H3.36153C1.50506 41.1144 0 39.6094 0 37.7529V33.0467L9.24419 26.3236C10.7099 25.2116 12.7609 25.3059 14.1184 26.5478L20.2812 31.9262C21.5729 33.0216 23.4165 33.1791 24.8753 32.3184L37.481 24.923V35.736Z" fill="#00CEB4"/>
<path d="M37.481 14.8384V24.923L24.8753 32.3183C23.4165 33.179 21.5729 33.0216 20.2812 31.9262L14.1184 26.5477C12.7609 25.3059 10.7099 25.2116 9.24419 26.3236L0 33.0467V14.8384C0 12.9819 1.50506 11.4769 3.36153 11.4769H34.1195C35.976 11.477 37.481 12.9819 37.481 14.8384Z" fill="#00EFD1"/>
<path d="M22.4102 24.2508C24.3905 24.2508 25.9959 22.6454 25.9959 20.6651C25.9959 18.6848 24.3905 17.0795 22.4102 17.0795C20.4299 17.0795 18.8246 18.6848 18.8246 20.6651C18.8246 22.6454 20.4299 24.2508 22.4102 24.2508Z" fill="#D4E1F4"/>
</svg>
